PathFileType	4	(X/Y/Z)	C:\Users\Basilio\Documents\Thesis Gigler\squatting_fais\c3dfiles\073\SLS_back_pre2\markers_experimental.trc
DataRate	CameraRate	NumFrames	NumMarkers	Units	OrigDataRate	OrigDataStartFrame	OrigNumFrames
200.000000	200.000000	4	61	mm	200.000000	316	1267
Frame#	Time	FHD			LBHD			RBHD			C7			T10			CLAV			LSHO			LUUPA			LMUPA			LDUPA			LLEP			LMEP			LRAD			LUL			LRFIN			RSHO			RUPA1			RMUPA			RDUPA			RLEP			RMEP			RRAD			RUL			RUFIN			LASI			RASI			USACR			LSACR			RSACR			LTHI1			LTHI2			LTHI3			LTHI4			LLFC			LMFC			LTIB1			LTIB2			LTIB3			LTIB4			LLMAL			LMMAL			LHEE			LMT1			LMT2			LMT5			RTHI			RTHI2			RTHI3			RTHI4			RLFC			RTIB1			RTIB2			RTIB3			RTIB4			RLMAL			RMMAL			RHEE			RMT1			RMT2			RMT5			RMFC			
		X1	Y1	Z1	X2	Y2	Z2	X3	Y3	Z3	X4	Y4	Z4	X5	Y5	Z5	X6	Y6	Z6	X7	Y7	Z7	X8	Y8	Z8	X9	Y9	Z9	X10	Y10	Z10	X11	Y11	Z11	X12	Y12	Z12	X13	Y13	Z13	X14	Y14	Z14	X15	Y15	Z15	X16	Y16	Z16	X17	Y17	Z17	X18	Y18	Z18	X19	Y19	Z19	X20	Y20	Z20	X21	Y21	Z21	X22	Y22	Z22	X23	Y23	Z23	X24	Y24	Z24	X25	Y25	Z25	X26	Y26	Z26	X27	Y27	Z27	X28	Y28	Z28	X29	Y29	Z29	X30	Y30	Z30	X31	Y31	Z31	X32	Y32	Z32	X33	Y33	Z33	X34	Y34	Z34	X35	Y35	Z35	X36	Y36	Z36	X37	Y37	Z37	X38	Y38	Z38	X39	Y39	Z39	X40	Y40	Z40	X41	Y41	Z41	X42	Y42	Z42	X43	Y43	Z43	X44	Y44	Z44	X45	Y45	Z45	X46	Y46	Z46	X47	Y47	Z47	X48	Y48	Z48	X49	Y49	Z49	X50	Y50	Z50	X51	Y51	Z51	X52	Y52	Z52	X53	Y53	Z53	X54	Y54	Z54	X55	Y55	Z55	X56	Y56	Z56	X57	Y57	Z57	X58	Y58	Z58	X59	Y59	Z59	X60	Y60	Z60	X61	Y61	Z61	

317	1.58	-97.63062286376956	1601.649291992188	-765.3204956054689	-234.1005096435547	1584.719970703125	-793.089538574219	-262.5502319335938	1571.238159179688	-660.3211669921876	-305.8290100097657	1479.468383789063	-721.5539550781251	-421.9389648437501	1162.41162109375	-731.7568359375001	-198.8602447509766	1374.113647460938	-719.4024047851564	-221.3003082275391	1429.822509765625	-861.462585449219	-145.9694213867188	1349.846557617188	-953.819519042969	-104.2320709228516	1367.233520507813	-931.1848754882815	-85.19256591796876	1318.888305664063	-963.5266723632815	17.12692451477051	1287.493408203125	-964.9666748046877	9.496191024780275	1231.956176757813	-921.7103271484377	274.0009765625001	1298.506591796875	-846.1582641601565	279.8982543945313	1293.76611328125	-920.4498291015627	356.1481933593751	1304.8515625	-836.3817138671877	-208.7849884033204	1418.4443359375	-576.1166381835939	-129.700668334961	1310.632446289063	-476.3919067382814	-88.42531585693361	1328.64599609375	-492.5585021972657	-69.79598999023439	1276.429321289063	-470.1108703613282	20.15746688842774	1251.136840820313	-469.5841674804689	12.74724769592286	1198.482788085938	-533.4185791015626	271.2644042968751	1271.555053710938	-584.6199340820314	282.8881530761719	1275.354248046875	-512.1431274414064	363.3284606933594	1295.259033203125	-589.1477050781251	-291.6836853027344	972.1213378906252	-858.291442871094	-299.8916625976563	966.6790771484377	-610.7756958007814	-464.9201660156251	1063.345825195313	-733.2632446289064	-480.0478515625001	1037.30810546875	-762.1754150390626	-486.6755981445314	1035.294677734375	-705.6875610351564	-311.1422119140626	654.8160400390626	-909.4277343750002	-271.5056457519532	581.2673950195314	-890.2698974609377	-231.6063537597657	588.5225830078126	-861.4982910156252	-299.1793823242188	528.1837158203126	-883.088806152344	-308.9680175781251	482.3440856933595	-883.4541625976565	-324.5352172851563	480.6568908691407	-748.4977416992189	-462.8993225097657	371.8996887207032	-841.1571044921877	-514.6452636718751	414.2973937988282	-897.2590942382815	-511.2077941894532	375.7599487304688	-875.9937744140627	-588.1428833007814	354.8099975585938	-846.498718261719	-716.6946411132814	381.0419311523438	-881.6628417968752	-694.2022094726564	379.2011413574219	-794.8182373046877	-760.8119506835939	434.335418701172	-842.5418701171877	-724.1523437500001	216.6006469726563	-793.2360839843752	-722.8364257812501	212.1726684570313	-832.591003417969	-750.9804077148439	238.9604034423829	-886.605651855469	-337.8553771972657	744.3032836914064	-551.2334594726564	-285.7151489257813	703.3077392578126	-555.0755615234376	-254.7258453369141	715.3645629882814	-559.1517944335939	-286.0509338378907	623.7008666992189	-581.7449340820314	-233.1804504394532	488.8149414062501	-607.7562255859376	-227.8417663574219	335.5287170410157	-715.5909423828126	-266.0827636718751	254.3745727539063	-656.5400390625001	-246.3971252441407	252.0723724365235	-700.6985473632814	-279.1637878417969	218.2609558105469	-734.9124755859376	-355.4838867187501	99.32106781005862	-689.4781494140626	-349.4336242675782	128.2684020996094	-775.2016601562502	-430.3368530273439	82.31468963623048	-744.7959594726564	-206.6012115478516	54.40000915527345	-761.5831298828126	-205.9197998046876	52.22998046875001	-720.0161132812501	-248.470199584961	35.45905685424805	-671.1258544921876	-229.3196258544922	493.3056030273439	-736.0435180664064	
318	1.585	-97.06879425048831	1600.664428710938	-765.3459472656251	-233.7767791748047	1583.7998046875	-793.0230712890627	-262.0719604492188	1570.239379882813	-660.2645874023439	-305.4260864257813	1478.745361328125	-721.5107421875001	-422.0705871582032	1161.878540039063	-731.8026123046876	-198.6589660644532	1373.103393554688	-719.3975219726564	-221.0852508544922	1428.990844726563	-861.3989868164065	-145.6241302490235	1349.276000976563	-953.8112792968752	-103.7713165283203	1366.340209960938	-931.1188964843752	-85.04321289062501	1318.054321289063	-963.6734008789065	17.56497573852539	1286.679077148438	-965.1047973632815	9.712554931640627	1231.048217773438	-921.7529907226565	274.3277893066407	1297.553344726563	-846.1683349609377	280.2525329589844	1292.902099609375	-920.3801269531252	356.5513916015626	1303.888916015625	-836.3869628906252	-208.4066467285157	1417.613891601563	-576.1545410156251	-129.4716796875	1309.778076171875	-476.4301757812501	-88.11444091796876	1327.792602539063	-492.5448303222657	-69.54056549072267	1275.475952148438	-469.9775390625001	20.41496849060059	1250.161254882813	-469.4958496093751	12.98534679412842	1197.426513671875	-533.2331542968751	271.4993896484376	1270.648315429688	-584.4046630859376	283.1950683593751	1274.339477539063	-512.1870117187501	363.5772705078126	1294.15625	-589.1740112304689	-292.0756225585938	971.3833007812502	-858.287780761719	-300.4017944335938	966.007019042969	-610.7557983398439	-465.2120971679689	1062.849487304688	-733.2836303710939	-480.242156982422	1036.869750976563	-762.3248291015626	-486.9905395507814	1034.818481445313	-705.7752685546876	-311.7012329101563	654.1253051757814	-909.6356201171877	-272.2858581542969	580.6733398437501	-890.5623168945315	-232.487289428711	587.5792236328126	-861.6750488281252	-299.8915100097657	527.5257568359376	-883.2534179687502	-309.6251831054688	481.6191711425782	-883.4605102539065	-324.8517150878907	479.859832763672	-749.2283325195314	-463.8603515625001	371.4317932128907	-841.2476806640627	-515.4375000000001	413.9161682128907	-897.2478027343752	-511.9617614746095	375.2882690429688	-875.9063720703127	-589.0285034179689	354.5215759277344	-846.5491943359377	-717.6629028320314	380.9347229003907	-881.4793701171877	-695.0192871093751	379.1138610839844	-794.6779785156252	-761.5768432617189	434.2877502441407	-842.3015136718752	-725.1046752929689	216.4943847656251	-793.2127685546877	-724.0202026367189	212.0044403076172	-832.4311523437502	-752.0768432617189	238.9920959472657	-886.5188598632815	-338.0393981933594	743.8117675781251	-551.2366943359376	-285.8257446289063	702.9001464843751	-555.0471191406251	-254.7554168701172	714.9924316406251	-559.0609741210939	-285.9486694335938	623.2460327148439	-581.7257690429689	-232.8350524902344	488.5623474121095	-607.6555786132814	-227.5371093750001	335.3442382812501	-715.5612182617189	-265.8756103515626	254.2679595947266	-656.4030761718751	-246.2654571533204	251.9278564453126	-700.6878662109376	-278.9481201171876	218.1367797851563	-734.8699951171876	-355.4952087402344	99.33058166503909	-689.4724731445314	-349.4225463867188	128.2654418945313	-775.199401855469	-430.3517150878907	82.33739471435548	-744.7705688476564	-206.5659484863282	54.39305114746095	-761.5671997070314	-205.9168853759766	52.22534942626955	-720.0126953125001	-248.4717712402344	35.45121765136719	-671.1580810546876	-229.0190582275391	493.0994873046876	-735.9390869140626	
319	1.59	-96.95476531982425	1599.665649414063	-765.2675170898439	-233.3151245117188	1582.867919921875	-793.0848388671877	-261.6276855468751	1569.400024414063	-660.2229614257814	-304.9754943847657	1477.925048828125	-721.5454101562501	-422.1673278808595	1161.388793945313	-731.8344116210939	-198.6009368896485	1372.0146484375	-719.4534301757814	-221.6658325195313	1428.28125	-861.386901855469	-145.256088256836	1348.535034179688	-953.7834472656252	-103.5499343872071	1365.49365234375	-931.2082519531252	-84.67021942138673	1317.302124023438	-963.5833740234377	17.828031539917	1285.859497070313	-965.0179443359377	10.10312271118164	1230.308715820313	-921.986022949219	274.6036071777344	1296.680541992188	-846.226013183594	280.6289367675782	1291.870361328125	-920.4508056640627	356.8483276367188	1302.826782226563	-836.4481201171877	-208.0732727050782	1416.693237304688	-576.2058105468751	-129.1595001220703	1308.935546875	-476.3232421875001	-87.89878845214845	1326.868896484375	-492.5703430175782	-69.30226898193361	1274.586547851563	-469.911834716797	20.65373420715332	1249.156372070313	-469.4722900390626	13.16276931762696	1196.438110351563	-533.2147216796876	271.7769165039063	1269.37451171875	-584.4156494140626	283.4339294433594	1273.230834960938	-512.0393676757814	363.7928771972657	1293.019409179688	-589.2100219726564	-292.4633483886719	970.6409301757815	-858.2402343750002	-300.9566650390626	965.244567871094	-610.7143554687501	-465.5257263183595	1062.3505859375	-733.2509765625001	-480.6936645507814	1036.429321289063	-762.3481445312501	-487.5133361816407	1034.375122070313	-705.8803100585939	-312.4148254394532	653.4526367187501	-909.8405761718752	-273.1072998046876	579.9274291992189	-890.7796020507815	-233.1291961669922	586.8527221679689	-862.1063232421877	-300.5932922363282	526.8639526367189	-883.476745605469	-310.3665466308594	480.8452453613282	-883.589294433594	-325.4579772949219	479.1694641113282	-749.4552001953126	-464.602020263672	370.9279479980469	-841.3477172851565	-516.1937866210939	413.5853881835939	-897.3379516601565	-512.6539916992189	374.8170776367188	-875.820007324219	-589.9100952148439	354.2236938476563	-846.4631958007815	-718.5200805664064	380.8713378906251	-881.3293457031252	-695.9077758789064	378.9486999511719	-794.565368652344	-762.3452758789064	434.2713928222657	-842.1209106445315	-726.1603393554689	216.4852447509766	-792.9702758789065	-724.9650268554689	211.960189819336	-832.3173828125002	-753.1441650390626	238.9233093261719	-886.4549560546877	-338.2519226074219	743.2066040039064	-551.2544555664064	-285.9200439453126	702.5503540039064	-554.9924316406251	-254.9093475341797	714.6548461914064	-558.9670410156251	-285.8664855957032	622.8211059570314	-581.6947021484376	-232.3959960937501	488.3526000976564	-607.5489501953126	-227.287582397461	335.2122802734376	-715.5322265625001	-265.6952514648438	254.1903839111329	-656.4039916992189	-246.0420227050782	251.7651062011719	-700.6083984375001	-278.7797851562501	218.0370483398438	-734.8664550781251	-355.4970092773438	99.33235168457034	-689.4706420898439	-349.3171081542969	128.2713165283203	-775.198181152344	-430.3142700195314	82.3434524536133	-744.8303833007814	-206.5634002685547	54.39583206176759	-761.5695190429689	-205.9158630371094	52.2477378845215	-719.9556274414064	-248.475814819336	35.44189071655274	-671.1178588867189	-228.5631408691407	492.8787231445314	-735.8393554687501	
320	1.595	-96.29196929931643	1598.793090820313	-765.1793212890626	-232.7368927001954	1582.003051757813	-793.033142089844	-261.1247558593751	1568.540405273438	-660.0790405273439	-304.5054016113282	1477.0791015625	-721.4472656250001	-422.345184326172	1160.846923828125	-731.9056396484376	-197.974594116211	1371.11865234375	-719.3502807617189	-220.9922790527344	1427.502075195313	-861.082702636719	-144.9520111083985	1347.616577148438	-953.7512817382815	-103.0413208007813	1364.787109375	-930.9810180664065	-84.35133361816408	1316.434814453125	-963.5671386718752	18.08784484863282	1285.013305664063	-965.0450439453127	10.448486328125	1229.472290039063	-922.0630493164065	274.9606628417969	1295.646606445313	-846.2747802734377	280.9677734375001	1290.937622070313	-920.5559692382815	357.1971130371094	1301.861694335938	-836.4685668945315	-207.7806549072266	1415.734619140625	-576.1557006835939	-128.9839935302735	1308.060180664063	-476.2183837890626	-87.58013916015626	1325.984008789063	-492.5285644531251	-69.03818511962892	1273.76025390625	-469.9246826171876	20.86998367309571	1248.225219726563	-469.3298950195314	13.33411121368409	1195.5517578125	-533.1670532226564	271.9254760742188	1268.325927734375	-584.4323730468751	283.5992126464844	1272.179809570313	-512.0585937500001	364.0187377929688	1291.947021484375	-589.0726318359376	-292.8610534667969	969.851013183594	-858.0523681640627	-301.4382324218751	964.566589355469	-610.7276000976564	-465.7974548339845	1061.716186523438	-733.2747192382814	-481.1113586425782	1035.954345703125	-762.3366699218751	-488.090789794922	1033.960327148438	-705.9855346679689	-313.1629943847657	652.7446899414064	-909.860290527344	-273.8228759765626	579.2359008789064	-890.9900512695315	-233.3536071777344	586.2313232421876	-862.3365478515627	-301.4315795898438	526.1873168945314	-883.6619262695315	-311.1974792480469	480.2272033691407	-883.968444824219	-326.0023193359376	478.4916992187501	-749.6988525390626	-465.4208374023439	370.4451599121094	-841.4947509765627	-517.0915527343751	413.2145080566407	-897.3555297851565	-514.0830078125001	374.6040649414063	-876.3983154296877	-590.7659912109376	353.9901428222657	-846.1968383789065	-719.2931518554689	380.7899169921876	-881.143005371094	-696.6574707031251	378.8381652832032	-794.4628906250002	-763.0590209960939	434.2312622070314	-841.9278564453127	-727.1856079101564	216.3653106689454	-792.862243652344	-726.0999145507814	211.9319915771485	-832.1091918945315	-754.3499145507814	238.9497070312501	-886.1958618164065	-338.4706726074219	742.5780029296876	-551.2543334960939	-286.0039367675782	702.1868286132814	-555.0192871093751	-255.0291595458985	714.3436279296876	-558.9617309570314	-285.6873474121094	622.3656616210939	-581.6900024414064	-232.004623413086	488.1218261718751	-607.4998168945314	-227.0397949218751	335.1055297851563	-715.5625610351564	-265.5339660644532	254.0011749267579	-656.4251098632814	-245.8081054687501	251.6241760253907	-700.5836791992189	-278.6138610839844	217.9812164306641	-734.8541870117189	-355.4580383300782	99.34223175048831	-689.4511108398439	-349.3157043457032	128.2969665527344	-775.232604980469	-430.326873779297	82.34700012207033	-744.8267822265626	-206.586898803711	54.39368438720705	-761.5762939453126	-205.8887329101563	52.24946594238283	-719.9789428710939	-248.4764862060547	35.44185638427735	-671.1184692382814	-228.0418090820313	492.6868286132814	-735.8087158203126	
